# xmcd
# 
# Track frame offsets:
#     150
#     31695
#     70339
#     107926
#     154703
#     189061
#     209477
#     244423
#     284621
# 
# Disc length: 4213
# 
# Revision: 1
# Processed by: cddbd v1.5.2PL0 Copyright (c) Steve Scherf et al.
# Submitted via: fre:ac v1.0.27
# 
DISCID=7f107309
DTITLE=Omer Avital - Abutbul Music
DYEAR=2016
DGENRE=Jazz
TTITLE0=Muhammad's Market
TTITLE1=Three Four
TTITLE2=Afrik
TTITLE3=New Yemenite Song
TTITLE4=Bed-Stuy
TTITLE5=Bass Hijaz (intro to Ramat Gan)
TTITLE6=Ramat Gan
TTITLE7=Ayalat Hen
TTITLE8=Eser
EXTD=YEAR: 2016
EXTT0=
EXTT1=
EXTT2=
EXTT3=
EXTT4=
EXTT5=
EXTT6=
EXTT7=
EXTT8=
PLAYORDER=
